<?xml version="1.0" encoding="UTF-8" standalone="no"?>
<!DOCTYPE svg PUBLIC "-//W3C//DTD SVG 1.1//EN" "http://www.w3.org/Graphics/SVG/1.1/DTD/svg11.dtd">
<!-- Generated by Microsoft Visio, SVG Export ppi_example.svg Page-1 -->
<svg xmlns="http://www.w3.org/2000/svg" xmlns:xlink="http://www.w3.org/1999/xlink" xmlns:ev="http://www.w3.org/2001/xml-events"
		width="7.7365in" height="3.49058in" viewBox="0 0 557.028 251.322" xml:space="preserve" color-interpolation-filters="sRGB"
		class="st7">
	<style type="text/css">
	<![CDATA[
		.st1 {fill:#c4dbf2;stroke:#000000;stroke-linecap:round;stroke-linejoin:round;stroke-width:0.24}
		.st2 {fill:#000000;font-family:Arial;font-size:1.00001em}
		.st3 {font-size:1em}
		.st4 {marker-end:url(#mrkr13-29);stroke:#000000;stroke-linecap:round;stroke-linejoin:round;stroke-width:0.24}
		.st5 {fill:#000000;fill-opacity:1;stroke:#000000;stroke-opacity:1;stroke-width:0.08695652173913}
		.st6 {fill:#ffffff;stroke:none;stroke-linecap:butt;stroke-width:7.2}
		.st7 {fill:none;fill-rule:evenodd;font-size:12px;overflow:visible;stroke-linecap:square;stroke-miterlimit:3}
	]]>
	</style>

	<defs id="Markers">
		<g id="lend13">
			<path d="M 3 1 L 0 0 L 3 -1 L 3 1 " style="stroke:none"/>
		</g>
		<marker id="mrkr13-29" class="st5" refX="-34.5" orient="auto" markerUnits="strokeWidth" overflow="visible">
			<use xlink:href="#lend13" transform="scale(-11.5,-11.5) "/>
		</marker>
	</defs>
	<g>
		<title>Page-1</title>
		<g id="shape351-1" transform="translate(0.12,-178.673)">
			<title>Sheet.351</title>
			<desc>Timer 1</desc>
			<rect x="0" y="219.875" width="64.8225" height="31.4468" class="st1"/>
			<text x="12.08" y="239.2" class="st2">Timer 1</text>		</g>
		<g id="shape352-4" transform="translate(0.12,-125.967)">
			<title>Sheet.352</title>
			<desc>Timer 2</desc>
			<rect x="0" y="219.875" width="64.8225" height="31.4468" class="st1"/>
			<text x="12.08" y="239.2" class="st2">Timer 2</text>		</g>
		<g id="shape353-7" transform="translate(272.531,-178.673)">
			<title>Sheet.353</title>
			<desc>PPI CH0</desc>
			<rect x="0" y="219.875" width="64.8225" height="31.4468" class="st1"/>
			<text x="9.07" y="239.2" class="st2">PPI CH0</text>		</g>
		<g id="shape354-10" transform="translate(272.531,-125.967)">
			<title>Sheet.354</title>
			<desc>PPI CH1</desc>
			<rect x="0" y="219.875" width="64.8225" height="31.4468" class="st1"/>
			<text x="9.07" y="239.2" class="st2">PPI CH1</text>		</g>
		<g id="shape355-13" transform="translate(442.176,-125.967)">
			<title>Sheet.355</title>
			<desc>Timer 0 Counter Mode</desc>
			<rect x="0" y="167.169" width="84.8225" height="84.1533" class="st1"/>
			<text x="22.08" y="198.45" class="st2">Timer 0 <tspan x="21.07" dy="1.2em" class="st3">Counter</tspan><tspan x="27.4"
						dy="1.2em" class="st3">Mode</tspan></text>		</g>
		<g id="shape356-18" transform="translate(442.176,-73.2601)">
			<title>Sheet.356</title>
			<desc>Capture CC[0]</desc>
			<rect x="0" y="219.875" width="84.8225" height="31.4468" class="st1"/>
			<text x="4.06" y="239.2" class="st2">Capture CC[0]</text>		</g>
		<g id="shape357-21" transform="translate(442.176,-0.12)">
			<title>Sheet.357</title>
			<desc>Printf()</desc>
			<rect x="0" y="219.875" width="84.8225" height="31.4468" class="st1"/>
			<text x="24.41" y="239.2" class="st2">Printf()</text>		</g>
		<g id="shape358-24" transform="translate(64.9425,-194.397)">
			<title>Sheet.358</title>
			<desc>CC[0] event at 2,4,6,… seconds</desc>
			<path d="M0 251.32 L199.31 251.32" class="st4"/>
			<rect x="20.8727" y="242.675" width="170.095" height="14.4001" class="st6"/>
			<text x="20.87" y="253.48" class="st2">CC[0] event at 2,4,6,… seconds</text>		</g>
		<g id="shape359-32" transform="translate(64.9425,-141.69)">
			<title>Sheet.359</title>
			<desc>CC[0] event at 1,3,5,… seconds</desc>
			<path d="M0 251.32 L199.31 251.32" class="st4"/>
			<rect x="18.4614" y="245.692" width="170.095" height="14.4001" class="st6"/>
			<text x="18.46" y="256.49" class="st2">CC[0] event at 1,3,5,… seconds</text>		</g>
		<g id="shape360-39" transform="translate(342.803,-194.338) rotate(1.24237)">
			<title>Sheet.360</title>
			<desc>STOP TASK</desc>
			<path d="M0 251.32 L96.57 251.32" class="st4"/>
			<rect x="10.4047" y="243.726" width="67.3487" height="14.4001" transform="rotate(-1.24237)" class="st6"/>
			<text x="10.4" y="254.53" transform="rotate(-1.24237)" class="st2">STOP TASK</text>		</g>
		<g id="shape361-46" transform="translate(331.905,-141.631) rotate(-1.24237)">
			<title>Sheet.361</title>
			<desc>START TASK</desc>
			<path d="M0 251.32 L96.57 251.32" class="st4"/>
			<rect x="16.9277" y="242.375" width="74.0108" height="14.4001" transform="rotate(1.24237)" class="st6"/>
			<text x="16.93" y="253.18" transform="rotate(1.24237)" class="st2">START TASK</text>		</g>
		<g id="shape362-53" transform="translate(735.909,125.355) rotate(90)">
			<title>Sheet.362</title>
			<path d="M0 251.32 L12.98 251.32" class="st4"/>
		</g>
		<g id="shape363-58" transform="translate(735.909,178.062) rotate(90)">
			<title>Sheet.363</title>
			<desc>CC[0]</desc>
			<path d="M0 251.32 L33.41 251.32" class="st4"/>
			<rect x="-264.384" y="6.95353" width="30.6741" height="14.4001" transform="rotate(-90)" class="st6"/>
			<text x="-264.38" y="17.75" transform="rotate(-90)" class="st2">CC[0]</text>		</g>
		<g id="shape366-65" transform="translate(735.909,16.6685) rotate(90)">
			<title>Sheet.366</title>
			<desc>Increment every 100 ms</desc>
			<path d="M0 251.32 L16.25 251.32" class="st4"/>
			<rect x="-314.94" y="-12.6665" width="128.721" height="14.4001" transform="rotate(-90)" class="st6"/>
			<text x="-314.94" y="-1.87" transform="rotate(-90)" class="st2">Increment every 100 ms</text>		</g>
	</g>
</svg>
